<svg xmlns="http://www.w3.org/2000/svg" viewBox="0 0 755.9000000000001 2096" width="755.9000000000001" height="2096" style="--bg:#282a36;--fg:#f8f8f2;--line:#6272a4;--accent:#bd93f9;--muted:#6272a4;background:var(--bg)">
<style>
  @import url('https://fonts.googleapis.com/css2?family=Inter:wght@400;500;600;700&amp;display=swap');
  text { font-family: 'Inter', system-ui, sans-serif; }
  svg {
    /* Derived from --bg and --fg (overridable via --line, --accent, etc.) */
    --_text:          var(--fg);
    --_text-sec:      var(--muted, color-mix(in srgb, var(--fg) 60%, var(--bg)));
    --_text-muted:    var(--muted, color-mix(in srgb, var(--fg) 40%, var(--bg)));
    --_text-faint:    color-mix(in srgb, var(--fg) 25%, var(--bg));
    --_line:          var(--line, color-mix(in srgb, var(--fg) 30%, var(--bg)));
    --_arrow:         var(--accent, color-mix(in srgb, var(--fg) 50%, var(--bg)));
    --_node-fill:     var(--surface, color-mix(in srgb, var(--fg) 3%, var(--bg)));
    --_node-stroke:   var(--border, color-mix(in srgb, var(--fg) 20%, var(--bg)));
    --_group-fill:    var(--bg);
    --_group-hdr:     color-mix(in srgb, var(--fg) 5%, var(--bg));
    --_inner-stroke:  color-mix(in srgb, var(--fg) 12%, var(--bg));
    --_key-badge:     color-mix(in srgb, var(--fg) 10%, var(--bg));
  }
</style>
<defs>
  <marker id="arrowhead" markerWidth="8" markerHeight="4.8" refX="8" refY="2.4" orient="auto">
    <polygon points="0 0, 8 2.4, 0 4.8" fill="var(--_arrow)" />
  </marker>
  <marker id="arrowhead-start" markerWidth="8" markerHeight="4.8" refX="0" refY="2.4" orient="auto-start-reverse">
    <polygon points="8 0, 0 2.4, 8 4.8" fill="var(--_arrow)" />
  </marker>
</defs>
<rect x="436.54999999999995" y="40" width="279.3500000000001" height="296" rx="0" ry="0" fill="var(--_group-fill)" stroke="var(--_node-stroke)" stroke-width="1" />
<rect x="436.54999999999995" y="40" width="279.3500000000001" height="28" rx="0" ry="0" fill="var(--_group-hdr)" stroke="var(--_node-stroke)" stroke-width="1" />
<text x="448.54999999999995" y="54" dy="0.35em" font-size="12" font-weight="600" fill="var(--_text-sec)">&quot;🔐 Authentication&quot;</text>
<rect x="436.54999999999995" y="320" width="279.3500000000001" height="356" rx="0" ry="0" fill="var(--_group-fill)" stroke="var(--_node-stroke)" stroke-width="1" />
<rect x="436.54999999999995" y="320" width="279.3500000000001" height="28" rx="0" ry="0" fill="var(--_group-hdr)" stroke="var(--_node-stroke)" stroke-width="1" />
<text x="448.54999999999995" y="334" dy="0.35em" font-size="12" font-weight="600" fill="var(--_text-sec)">&quot;👀 Browse &amp; Discovery&quot;</text>
<rect x="436.54999999999995" y="660" width="279.3500000000001" height="236" rx="0" ry="0" fill="var(--_group-fill)" stroke="var(--_node-stroke)" stroke-width="1" />
<rect x="436.54999999999995" y="660" width="279.3500000000001" height="28" rx="0" ry="0" fill="var(--_group-hdr)" stroke="var(--_node-stroke)" stroke-width="1" />
<text x="448.54999999999995" y="674" dy="0.35em" font-size="12" font-weight="600" fill="var(--_text-sec)">&quot;📦 Listing Management&quot;</text>
<rect x="436.54999999999995" y="880" width="279.3500000000001" height="236" rx="0" ry="0" fill="var(--_group-fill)" stroke="var(--_node-stroke)" stroke-width="1" />
<rect x="436.54999999999995" y="880" width="279.3500000000001" height="28" rx="0" ry="0" fill="var(--_group-hdr)" stroke="var(--_node-stroke)" stroke-width="1" />
<text x="448.54999999999995" y="894" dy="0.35em" font-size="12" font-weight="600" fill="var(--_text-sec)">&quot;📋 Order System&quot;</text>
<rect x="436.54999999999995" y="1100" width="279.3500000000001" height="236" rx="0" ry="0" fill="var(--_group-fill)" stroke="var(--_node-stroke)" stroke-width="1" />
<rect x="436.54999999999995" y="1100" width="279.3500000000001" height="28" rx="0" ry="0" fill="var(--_group-hdr)" stroke="var(--_node-stroke)" stroke-width="1" />
<text x="448.54999999999995" y="1114" dy="0.35em" font-size="12" font-weight="600" fill="var(--_text-sec)">&quot;💬 Social Features&quot;</text>
<rect x="436.54999999999995" y="1320" width="279.3500000000001" height="236" rx="0" ry="0" fill="var(--_group-fill)" stroke="var(--_node-stroke)" stroke-width="1" />
<rect x="436.54999999999995" y="1320" width="279.3500000000001" height="28" rx="0" ry="0" fill="var(--_group-hdr)" stroke="var(--_node-stroke)" stroke-width="1" />
<text x="448.54999999999995" y="1334" dy="0.35em" font-size="12" font-weight="600" fill="var(--_text-sec)">&quot;⚙️ Admin Dashboard&quot;</text>
<rect x="436.54999999999995" y="1540" width="279.3500000000001" height="296" rx="0" ry="0" fill="var(--_group-fill)" stroke="var(--_node-stroke)" stroke-width="1" />
<rect x="436.54999999999995" y="1540" width="279.3500000000001" height="28" rx="0" ry="0" fill="var(--_group-hdr)" stroke="var(--_node-stroke)" stroke-width="1" />
<text x="448.54999999999995" y="1554" dy="0.35em" font-size="12" font-weight="600" fill="var(--_text-sec)">&quot;🛡️ Security&quot;</text>
<rect x="436.54999999999995" y="1820" width="279.3500000000001" height="236" rx="0" ry="0" fill="var(--_group-fill)" stroke="var(--_node-stroke)" stroke-width="1" />
<rect x="436.54999999999995" y="1820" width="279.3500000000001" height="28" rx="0" ry="0" fill="var(--_group-hdr)" stroke="var(--_node-stroke)" stroke-width="1" />
<text x="448.54999999999995" y="1834" dy="0.35em" font-size="12" font-weight="600" fill="var(--_text-sec)">&quot;🎨 Frontend UX&quot;</text>
<polyline points="336.55,1066 356.55,1066 356.55,116 492.3,116" fill="none" stroke="var(--_line)" stroke-width="0.75" marker-end="url(#arrowhead)" />
<polyline points="336.55,1066 356.55,1066 356.55,396 499.45000000000005,396" fill="none" stroke="var(--_line)" stroke-width="0.75" marker-end="url(#arrowhead)" />
<polyline points="336.55,1066 356.55,1066 356.55,736 474.425,736" fill="none" stroke="var(--_line)" stroke-width="0.75" marker-end="url(#arrowhead)" />
<polyline points="336.55,1066 356.55,1066 356.55,956 513.75,956" fill="none" stroke="var(--_line)" stroke-width="0.75" marker-end="url(#arrowhead)" />
<polyline points="336.55,1066 356.55,1066 356.55,1176 520.9,1176" fill="none" stroke="var(--_line)" stroke-width="0.75" marker-end="url(#arrowhead)" />
<polyline points="336.55,1066 356.55,1066 356.55,1396 488.725,1396" fill="none" stroke="var(--_line)" stroke-width="0.75" marker-end="url(#arrowhead)" />
<polyline points="336.55,1066 356.55,1066 356.55,1616 495.875,1616" fill="none" stroke="var(--_line)" stroke-width="0.75" marker-end="url(#arrowhead)" />
<polyline points="336.55,1066 356.55,1066 356.55,1896 492.3,1896" fill="none" stroke="var(--_line)" stroke-width="0.75" marker-end="url(#arrowhead)" />
<rect x="40" y="1048" width="296.55" height="36" rx="18" ry="18" fill="var(--_node-fill)" stroke="var(--_node-stroke)" stroke-width="0.75" />
<rect x="492.3" y="98" width="167.85000000000002" height="36" rx="6" ry="6" fill="var(--_node-fill)" stroke="var(--_node-stroke)" stroke-width="0.75" />
<rect x="456.55" y="158" width="239.35000000000002" height="36" rx="6" ry="6" fill="var(--_node-fill)" stroke="var(--_node-stroke)" stroke-width="0.75" />
<rect x="510.175" y="218" width="132.10000000000002" height="36" rx="6" ry="6" fill="var(--_node-fill)" stroke="var(--_node-stroke)" stroke-width="0.75" />
<rect x="488.725" y="278" width="175" height="36" rx="6" ry="6" fill="var(--_node-fill)" stroke="var(--_node-stroke)" stroke-width="0.75" />
<rect x="499.45000000000005" y="378" width="153.55" height="36" rx="6" ry="6" fill="var(--_node-fill)" stroke="var(--_node-stroke)" stroke-width="0.75" />
<rect x="510.175" y="438" width="132.10000000000002" height="36" rx="6" ry="6" fill="var(--_node-fill)" stroke="var(--_node-stroke)" stroke-width="0.75" />
<rect x="517.325" y="498" width="117.80000000000001" height="36" rx="6" ry="6" fill="var(--_node-fill)" stroke="var(--_node-stroke)" stroke-width="0.75" />
<rect x="506.6" y="558" width="139.25" height="36" rx="6" ry="6" fill="var(--_node-fill)" stroke="var(--_node-stroke)" stroke-width="0.75" />
<rect x="499.45000000000005" y="618" width="153.55" height="36" rx="6" ry="6" fill="var(--_node-fill)" stroke="var(--_node-stroke)" stroke-width="0.75" />
<rect x="474.425" y="718" width="203.60000000000002" height="36" rx="6" ry="6" fill="var(--_node-fill)" stroke="var(--_node-stroke)" stroke-width="0.75" />
<rect x="510.175" y="778" width="132.10000000000002" height="36" rx="6" ry="6" fill="var(--_node-fill)" stroke="var(--_node-stroke)" stroke-width="0.75" />
<rect x="499.45000000000005" y="838" width="153.55" height="36" rx="6" ry="6" fill="var(--_node-fill)" stroke="var(--_node-stroke)" stroke-width="0.75" />
<rect x="513.75" y="938" width="124.95" height="36" rx="6" ry="6" fill="var(--_node-fill)" stroke="var(--_node-stroke)" stroke-width="0.75" />
<rect x="510.175" y="998" width="132.10000000000002" height="36" rx="6" ry="6" fill="var(--_node-fill)" stroke="var(--_node-stroke)" stroke-width="0.75" />
<rect x="510.175" y="1058" width="132.10000000000002" height="36" rx="6" ry="6" fill="var(--_node-fill)" stroke="var(--_node-stroke)" stroke-width="0.75" />
<rect x="520.9" y="1158" width="110.65" height="36" rx="6" ry="6" fill="var(--_node-fill)" stroke="var(--_node-stroke)" stroke-width="0.75" />
<rect x="510.175" y="1218" width="132.10000000000002" height="36" rx="6" ry="6" fill="var(--_node-fill)" stroke="var(--_node-stroke)" stroke-width="0.75" />
<rect x="524.475" y="1278" width="103.5" height="36" rx="6" ry="6" fill="var(--_node-fill)" stroke="var(--_node-stroke)" stroke-width="0.75" />
<rect x="488.725" y="1378" width="175" height="36" rx="6" ry="6" fill="var(--_node-fill)" stroke="var(--_node-stroke)" stroke-width="0.75" />
<rect x="513.75" y="1438" width="124.95" height="36" rx="6" ry="6" fill="var(--_node-fill)" stroke="var(--_node-stroke)" stroke-width="0.75" />
<rect x="499.45000000000005" y="1498" width="153.55" height="36" rx="6" ry="6" fill="var(--_node-fill)" stroke="var(--_node-stroke)" stroke-width="0.75" />
<rect x="495.875" y="1598" width="160.70000000000002" height="36" rx="6" ry="6" fill="var(--_node-fill)" stroke="var(--_node-stroke)" stroke-width="0.75" />
<rect x="524.475" y="1658" width="103.5" height="36" rx="6" ry="6" fill="var(--_node-fill)" stroke="var(--_node-stroke)" stroke-width="0.75" />
<rect x="492.3" y="1718" width="167.85000000000002" height="36" rx="6" ry="6" fill="var(--_node-fill)" stroke="var(--_node-stroke)" stroke-width="0.75" />
<rect x="495.875" y="1778" width="160.70000000000002" height="36" rx="6" ry="6" fill="var(--_node-fill)" stroke="var(--_node-stroke)" stroke-width="0.75" />
<rect x="492.3" y="1878" width="167.85000000000002" height="36" rx="6" ry="6" fill="var(--_node-fill)" stroke="var(--_node-stroke)" stroke-width="0.75" />
<rect x="492.3" y="1938" width="167.85000000000002" height="36" rx="6" ry="6" fill="var(--_node-fill)" stroke="var(--_node-stroke)" stroke-width="0.75" />
<rect x="510.175" y="1998" width="132.10000000000002" height="36" rx="6" ry="6" fill="var(--_node-fill)" stroke="var(--_node-stroke)" stroke-width="0.75" />
<text x="188.275" y="1066" text-anchor="middle" dy="0.35em" font-size="13" font-weight="500" fill="var(--_text)">&quot;🚀 Used Laptops &amp; Parts Marketplace&quot;</text>
<text x="576.225" y="116" text-anchor="middle" dy="0.35em" font-size="13" font-weight="500" fill="var(--_text)">&quot;Sign up / Sign in&quot;</text>
<text x="576.225" y="176" text-anchor="middle" dy="0.35em" font-size="13" font-weight="500" fill="var(--_text)">&quot;JWT access + refresh tokens&quot;</text>
<text x="576.225" y="236" text-anchor="middle" dy="0.35em" font-size="13" font-weight="500" fill="var(--_text)">&quot;Auto refresh&quot;</text>
<text x="576.225" y="296" text-anchor="middle" dy="0.35em" font-size="13" font-weight="500" fill="var(--_text)">&quot;Profile management&quot;</text>
<text x="576.225" y="396" text-anchor="middle" dy="0.35em" font-size="13" font-weight="500" fill="var(--_text)">&quot;Home – featured&quot;</text>
<text x="576.225" y="456" text-anchor="middle" dy="0.35em" font-size="13" font-weight="500" fill="var(--_text)">&quot;Laptops grid&quot;</text>
<text x="576.225" y="516" text-anchor="middle" dy="0.35em" font-size="13" font-weight="500" fill="var(--_text)">&quot;Parts grid&quot;</text>
<text x="576.225" y="576" text-anchor="middle" dy="0.35em" font-size="13" font-weight="500" fill="var(--_text)">&quot;Services grid&quot;</text>
<text x="576.225" y="636" text-anchor="middle" dy="0.35em" font-size="13" font-weight="500" fill="var(--_text)">&quot;Listing details&quot;</text>
<text x="576.225" y="736" text-anchor="middle" dy="0.35em" font-size="13" font-weight="500" fill="var(--_text)">&quot;Create · Edit · Delete&quot;</text>
<text x="576.225" y="796" text-anchor="middle" dy="0.35em" font-size="13" font-weight="500" fill="var(--_text)">&quot;Image upload&quot;</text>
<text x="576.225" y="856" text-anchor="middle" dy="0.35em" font-size="13" font-weight="500" fill="var(--_text)">&quot;Search &amp; filter&quot;</text>
<text x="576.225" y="956" text-anchor="middle" dy="0.35em" font-size="13" font-weight="500" fill="var(--_text)">&quot;Place order&quot;</text>
<text x="576.225" y="1016" text-anchor="middle" dy="0.35em" font-size="13" font-weight="500" fill="var(--_text)">&quot;Track status&quot;</text>
<text x="576.225" y="1076" text-anchor="middle" dy="0.35em" font-size="13" font-weight="500" fill="var(--_text)">&quot;Admin manage&quot;</text>
<text x="576.225" y="1176" text-anchor="middle" dy="0.35em" font-size="13" font-weight="500" fill="var(--_text)">&quot;Favorites&quot;</text>
<text x="576.225" y="1236" text-anchor="middle" dy="0.35em" font-size="13" font-weight="500" fill="var(--_text)">&quot;Rate sellers&quot;</text>
<text x="576.225" y="1296" text-anchor="middle" dy="0.35em" font-size="13" font-weight="500" fill="var(--_text)">&quot;Messages&quot;</text>
<text x="576.225" y="1396" text-anchor="middle" dy="0.35em" font-size="13" font-weight="500" fill="var(--_text)">&quot;KPI cards · Charts&quot;</text>
<text x="576.225" y="1456" text-anchor="middle" dy="0.35em" font-size="13" font-weight="500" fill="var(--_text)">&quot;Bulk delete&quot;</text>
<text x="576.225" y="1516" text-anchor="middle" dy="0.35em" font-size="13" font-weight="500" fill="var(--_text)">&quot;User management&quot;</text>
<text x="576.225" y="1616" text-anchor="middle" dy="0.35em" font-size="13" font-weight="500" fill="var(--_text)">&quot;NoSQL protection&quot;</text>
<text x="576.225" y="1676" text-anchor="middle" dy="0.35em" font-size="13" font-weight="500" fill="var(--_text)">&quot;JWT auth&quot;</text>
<text x="576.225" y="1736" text-anchor="middle" dy="0.35em" font-size="13" font-weight="500" fill="var(--_text)">&quot;Role-based access&quot;</text>
<text x="576.225" y="1796" text-anchor="middle" dy="0.35em" font-size="13" font-weight="500" fill="var(--_text)">&quot;Input validation&quot;</text>
<text x="576.225" y="1896" text-anchor="middle" dy="0.35em" font-size="13" font-weight="500" fill="var(--_text)">&quot;Responsive design&quot;</text>
<text x="576.225" y="1956" text-anchor="middle" dy="0.35em" font-size="13" font-weight="500" fill="var(--_text)">&quot;Spinners · Toasts&quot;</text>
<text x="576.225" y="2016" text-anchor="middle" dy="0.35em" font-size="13" font-weight="500" fill="var(--_text)">&quot;Route guards&quot;</text>
</svg>